<svg width="647" height="607" viewBox="0 0 647 607" fill="none" xmlns="http://www.w3.org/2000/svg">
<path d="M72.8719 368.512C193.623 193.491 119.68 192.695 126.832 133.217C133.984 73.7392 290.38 -42.2968 529.602 15.8742C768.823 74.0452 571.231 149.287 553.981 351.486C553.981 351.486 545.952 493.189 379.594 578.829C213.237 664.469 -47.8791 543.533 72.8719 368.512Z" fill="url(#paint0_linear)"/>
<path d="M500.96 392.627L250.89 248.227C247.38 246.227 244.54 240.767 244.54 236.097V42.6271C244.54 37.9471 247.38 35.7971 250.89 37.8271L500.96 182.227C504.47 184.227 507.31 189.687 507.31 194.357V387.827C507.35 392.507 504.51 394.657 500.96 392.627Z" fill="#B1B4C4"/>
<path d="M502.29 394.627L505.06 393.027L503.86 384.817L502.29 394.627Z" fill="#B1B4C4"/>
<path d="M244.09 38.9971L246.82 37.4171L250.74 39.6571C250.74 39.6571 246.56 40.2871 246.46 40.2671C246.36 40.2471 244.09 38.9971 244.09 38.9971Z" fill="#B1B4C4"/>
<path d="M498.71 393.997L248.6 249.557C245.09 247.557 242.24 242.097 242.24 237.417V43.9971C242.24 39.3171 245.09 37.1671 248.6 39.1971L498.71 183.597C502.22 185.597 505.06 191.057 505.06 195.737V389.157C505.06 393.827 502.22 395.997 498.71 393.997Z" fill="#E4E7F2"/>
<path d="M498.27 394.207L248.16 249.807C244.65 247.807 241.8 242.347 241.8 237.667V44.1971C241.8 39.5271 244.65 37.3771 248.16 39.3971L498.27 183.797C501.77 185.797 504.62 191.257 504.62 195.937V389.407C504.62 394.087 501.77 396.237 498.27 394.207Z" fill="#D6D8E5"/>
<path d="M501.18 382.437L244.96 234.527L245.11 44.9971C245.11 43.0571 246.47 42.2671 248.11 43.2371L498.22 187.637C499.098 188.219 499.827 188.999 500.348 189.914C500.869 190.83 501.168 191.855 501.22 192.907L501.18 382.437Z" fill="white"/>
<path opacity="0.5" d="M501.1 382.447L244.96 234.537L245.04 44.9971C245.04 43.0571 246.4 42.2671 248.04 43.2371L498.15 187.637C499.028 188.219 499.756 189 500.277 189.915C500.798 190.83 501.097 191.855 501.15 192.907L501.1 382.447Z" fill="url(#paint1_linear)"/>
<path opacity="0.4" d="M309.63 506.627L59.52 362.227C56.01 360.227 56.45 356.667 60.52 354.327L228.07 257.587C232.07 255.257 238.25 254.997 241.75 257.027L491.87 401.427C495.37 403.427 494.93 406.987 490.87 409.327L323.31 506.067C319.26 508.397 313.13 508.657 309.63 506.627Z" fill="#D6D8E5"/>
<path d="M315.09 503.347L64.9599 358.997C61.4499 356.997 61.8899 353.437 65.9599 351.097L233.51 254.367C237.51 252.027 243.69 251.767 247.2 253.797L497.31 398.197C500.82 400.197 500.38 403.757 496.31 406.097L328.78 502.787C324.73 505.117 318.6 505.377 315.09 503.347Z" fill="#B1B4C4"/>
<path d="M62.61 355.687V350.967L67.91 353.187L62.61 355.687Z" fill="#B1B4C4"/>
<path d="M499.68 401.677V397.067L495.76 398.417L498.36 402.237L499.68 401.677Z" fill="#B1B4C4"/>
<path d="M315.09 499.377L64.9599 354.997C61.4499 352.997 61.8899 349.437 65.9599 347.097L233.51 250.357C237.51 248.017 243.69 247.767 247.2 249.797L497.31 394.197C500.82 396.197 500.38 399.757 496.31 402.097L328.78 498.807C324.73 501.147 318.6 501.407 315.09 499.377Z" fill="#E4E7F2"/>
<path d="M315.09 498.767L64.9599 354.367C61.4499 352.367 61.8899 348.797 65.9599 346.467L233.51 249.727C237.51 247.387 243.69 247.137 247.2 249.157L497.31 393.567C500.82 395.567 500.38 399.127 496.31 401.467L328.78 498.197C324.73 500.537 318.6 500.787 315.09 498.767Z" fill="#D6D8E5"/>
<path d="M228.87 282.357L217.23 275.637C216.23 275.087 216.4 274.127 217.49 273.497L228.61 267.077C229.172 266.764 229.799 266.588 230.442 266.562C231.085 266.536 231.724 266.661 232.31 266.927L243.96 273.647C244.91 274.197 244.79 275.157 243.69 275.787L232.58 282.207C232.016 282.52 231.387 282.696 230.743 282.722C230.099 282.749 229.457 282.623 228.87 282.357Z" fill="#2B303F"/>
<path d="M245.36 291.877L233.71 285.147C232.76 284.607 232.88 283.647 233.98 283.007L245.09 276.597C245.654 276.284 246.283 276.108 246.927 276.082C247.571 276.056 248.213 276.181 248.8 276.447L260.44 283.167C261.44 283.717 261.27 284.677 260.18 285.307L249.06 291.717C248.5 292.034 247.872 292.213 247.229 292.241C246.586 292.269 245.946 292.144 245.36 291.877Z" fill="#2B303F"/>
<path d="M262.03 301.507L250.39 294.777C249.39 294.227 249.56 293.267 250.65 292.637L261.77 286.227C262.33 285.91 262.958 285.731 263.601 285.703C264.244 285.675 264.884 285.8 265.47 286.067L277.12 292.797C278.12 293.337 277.95 294.297 276.85 294.937L265.74 301.347C265.176 301.659 264.547 301.835 263.904 301.863C263.26 301.891 262.619 301.769 262.03 301.507Z" fill="#2B303F"/>
<path d="M278.33 310.907L266.68 304.187C265.73 303.637 265.85 302.677 266.95 302.047L278.06 295.627C278.624 295.314 279.253 295.138 279.897 295.112C280.541 295.086 281.183 295.211 281.77 295.477L293.42 302.197C294.37 302.747 294.25 303.707 293.15 304.337L282.04 310.757C281.476 311.07 280.847 311.246 280.203 311.273C279.559 311.299 278.917 311.173 278.33 310.907Z" fill="#2B303F"/>
<path d="M294.82 320.427L283.17 313.707C282.17 313.157 282.34 312.197 283.44 311.567L294.55 305.147C295.114 304.834 295.743 304.658 296.387 304.632C297.031 304.606 297.673 304.731 298.26 304.997L309.9 311.717C310.85 312.267 310.73 313.227 309.63 313.857L298.52 320.277C297.958 320.59 297.33 320.766 296.688 320.792C296.045 320.818 295.405 320.693 294.82 320.427Z" fill="#2B303F"/>
<path d="M311.3 329.997L299.66 323.277C298.71 322.727 298.82 321.767 299.92 321.137L311.03 314.717C311.594 314.404 312.223 314.228 312.867 314.202C313.511 314.176 314.153 314.301 314.74 314.567L326.39 321.287C327.34 321.837 327.22 322.797 326.12 323.427L315.01 329.847C314.446 330.16 313.817 330.336 313.173 330.363C312.529 330.389 311.887 330.263 311.3 329.997Z" fill="#2B303F"/>
<path d="M327.79 339.467L316.14 332.747C315.19 332.197 315.31 331.237 316.41 330.607L327.52 324.187C328.084 323.874 328.713 323.698 329.357 323.672C330.001 323.646 330.643 323.771 331.23 324.037L342.87 330.757C343.82 331.307 343.7 332.267 342.61 332.897L331.49 339.307C330.93 339.624 330.302 339.803 329.659 339.831C329.016 339.859 328.376 339.734 327.79 339.467Z" fill="#2B303F"/>
<path d="M344.27 348.997L332.63 342.267C331.68 341.717 331.8 340.767 332.89 340.127L344.01 333.717C344.57 333.4 345.198 333.221 345.841 333.193C346.484 333.165 347.124 333.29 347.71 333.557L359.36 340.287C360.36 340.837 360.19 341.787 359.09 342.427L347.96 348.827C347.401 349.142 346.776 349.322 346.135 349.351C345.494 349.381 344.855 349.259 344.27 348.997Z" fill="#2B303F"/>
<path d="M360.76 358.497L349.11 351.777C348.16 351.227 348.28 350.267 349.38 349.637L360.49 343.227C361.052 342.91 361.681 342.731 362.326 342.703C362.97 342.675 363.613 342.8 364.2 343.067L375.84 349.797C376.79 350.337 376.67 351.297 375.58 351.937L364.47 358.347C363.906 358.66 363.277 358.836 362.633 358.863C361.989 358.889 361.347 358.763 360.76 358.497Z" fill="#2B303F"/>
<path d="M377.24 367.997L365.6 361.277C364.65 360.727 364.77 359.767 365.86 359.137L376.96 352.737C377.522 352.424 378.15 352.248 378.792 352.222C379.435 352.196 380.075 352.321 380.66 352.587L392.31 359.307C393.26 359.857 393.14 360.817 392.04 361.447L380.96 367.867C380.393 368.178 379.762 368.352 379.115 368.375C378.469 368.397 377.827 368.268 377.24 367.997Z" fill="#2B303F"/>
<path d="M393.73 377.537L382.08 370.817C381.13 370.267 381.25 369.307 382.35 368.677L393.46 362.257C394.024 361.944 394.653 361.768 395.297 361.742C395.941 361.716 396.583 361.841 397.17 362.107L408.82 368.827C409.77 369.377 409.65 370.337 408.55 370.967L397.44 377.387C396.876 377.7 396.247 377.876 395.603 377.903C394.959 377.929 394.317 377.803 393.73 377.537Z" fill="#2B303F"/>
<path d="M410.22 387.057L398.57 380.337C397.62 379.787 397.74 378.827 398.84 378.197L409.96 371.777C410.524 371.464 411.153 371.288 411.797 371.262C412.441 371.236 413.083 371.361 413.67 371.627L425.31 378.347C426.31 378.897 426.14 379.857 425.04 380.487L413.96 386.907C413.393 387.226 412.758 387.406 412.108 387.433C411.458 387.459 410.811 387.33 410.22 387.057Z" fill="#2B303F"/>
<path d="M426.7 396.577L415.06 389.847C414.06 389.297 414.22 388.347 415.32 387.707L426.43 381.297C426.993 380.983 427.622 380.804 428.266 380.777C428.91 380.749 429.552 380.872 430.14 381.137L441.79 387.867C442.74 388.417 442.62 389.367 441.52 390.007L430.41 396.417C429.848 396.734 429.219 396.913 428.574 396.941C427.93 396.969 427.287 396.844 426.7 396.577Z" fill="#2B303F"/>
<path d="M451.13 410.677L431.54 399.367C430.59 398.817 430.71 397.857 431.81 397.227L442.96 390.817C443.522 390.5 444.151 390.321 444.796 390.293C445.441 390.265 446.083 390.39 446.67 390.657L466.21 401.997C467.16 402.547 467.04 403.507 465.95 404.137L454.83 410.557C454.266 410.865 453.637 411.036 452.994 411.057C452.352 411.078 451.713 410.948 451.13 410.677Z" fill="#2B303F"/>
<path d="M237.35 305.697L225.7 298.997C224.7 298.447 224.87 297.487 225.97 296.857L237.08 290.437C237.644 290.124 238.273 289.948 238.917 289.922C239.561 289.896 240.203 290.021 240.79 290.287L252.43 296.997C253.38 297.547 253.26 298.507 252.17 299.137L241.05 305.557C240.487 305.868 239.859 306.043 239.217 306.067C238.574 306.092 237.935 305.965 237.35 305.697Z" fill="#2B303F"/>
<path d="M253.86 315.237L242.22 308.517C241.27 307.967 241.39 307.007 242.48 306.377L253.6 299.997C254.162 299.684 254.79 299.508 255.432 299.482C256.075 299.456 256.715 299.581 257.3 299.847L268.96 306.527C269.91 307.077 269.79 308.037 268.69 308.667L257.58 315.087C257.015 315.402 256.384 315.579 255.738 315.605C255.092 315.631 254.449 315.505 253.86 315.237Z" fill="#2B303F"/>
<path d="M270.38 324.767L258.73 318.047C257.73 317.497 257.9 316.537 259 315.907L270.11 309.487C270.674 309.174 271.303 308.998 271.947 308.972C272.591 308.946 273.233 309.071 273.82 309.337L285.46 316.057C286.41 316.607 286.29 317.567 285.2 318.197L274.08 324.617C273.518 324.93 272.89 325.106 272.248 325.132C271.605 325.158 270.965 325.033 270.38 324.767Z" fill="#2B303F"/>
<path d="M286.89 334.307L275.24 327.577C274.29 327.037 274.41 326.077 275.51 325.437L286.62 318.997C287.183 318.683 287.812 318.504 288.456 318.477C289.1 318.449 289.742 318.572 290.33 318.837L301.96 325.597C302.91 326.147 302.79 327.097 301.69 327.737L290.58 334.147C290.02 334.461 289.395 334.638 288.754 334.666C288.113 334.694 287.475 334.571 286.89 334.307Z" fill="#2B303F"/>
<path d="M303.27 343.767L291.63 336.997C290.68 336.447 290.8 335.497 291.89 334.857L303.01 328.447C303.57 328.13 304.198 327.951 304.841 327.923C305.484 327.895 306.124 328.02 306.71 328.287L318.36 335.017C319.36 335.557 319.19 336.517 318.09 337.157L306.96 343.607C306.4 343.918 305.774 344.095 305.134 344.123C304.493 344.15 303.855 344.029 303.27 343.767Z" fill="#2B303F"/>
<path d="M319.79 353.297L308.14 346.577C307.19 346.027 307.31 345.067 308.41 344.437L319.52 337.997C320.084 337.684 320.713 337.508 321.357 337.482C322.001 337.456 322.643 337.581 323.23 337.847L334.87 344.567C335.82 345.117 335.7 346.077 334.61 346.707L323.49 353.127C322.93 353.443 322.303 353.623 321.66 353.653C321.018 353.682 320.377 353.56 319.79 353.297Z" fill="#2B303F"/>
<path d="M336.3 362.827L324.65 356.107C323.7 355.557 323.82 354.597 324.92 353.967L336.03 347.557C336.592 347.24 337.221 347.061 337.866 347.033C338.51 347.005 339.153 347.13 339.74 347.397L351.39 354.127C352.34 354.667 352.22 355.627 351.12 356.267L340.01 362.677C339.446 362.99 338.817 363.166 338.173 363.192C337.529 363.219 336.887 363.093 336.3 362.827Z" fill="#2B303F"/>
<path d="M352.81 372.367L341.17 365.647C340.22 365.097 340.34 364.137 341.44 363.507L352.55 357.087C353.112 356.774 353.74 356.598 354.382 356.572C355.025 356.546 355.665 356.671 356.25 356.937L367.9 363.657C368.85 364.207 368.73 365.167 367.63 365.797L356.52 372.217C355.956 372.53 355.327 372.706 354.683 372.733C354.039 372.759 353.397 372.633 352.81 372.367Z" fill="#2B303F"/>
<path d="M369.33 381.897L357.68 375.177C356.68 374.627 356.85 373.667 357.95 373.037L369.06 366.617C369.624 366.304 370.253 366.128 370.897 366.102C371.541 366.076 372.183 366.201 372.77 366.467L384.41 373.187C385.36 373.737 385.25 374.697 384.15 375.327L373.04 381.747C372.476 382.06 371.847 382.236 371.203 382.263C370.559 382.289 369.917 382.163 369.33 381.897Z" fill="#2B303F"/>
<path d="M385.84 391.437L374.2 384.707C373.25 384.167 373.37 383.207 374.46 382.567L385.58 376.157C386.142 375.845 386.769 375.668 387.411 375.64C388.053 375.613 388.693 375.735 389.28 375.997L400.96 382.727C401.91 383.277 401.79 384.237 400.69 384.867L389.58 391.277C389.014 391.599 388.38 391.781 387.729 391.809C387.079 391.837 386.431 391.709 385.84 391.437Z" fill="#2B303F"/>
<path d="M402.36 400.997L390.71 394.277C389.76 393.727 389.88 392.767 390.98 392.137L402.09 385.717C402.654 385.404 403.283 385.228 403.927 385.202C404.571 385.176 405.213 385.301 405.8 385.567L417.44 392.287C418.39 392.837 418.27 393.797 417.18 394.427L406.06 400.847C405.498 401.16 404.87 401.336 404.228 401.362C403.585 401.388 402.945 401.263 402.36 400.997Z" fill="#2B303F"/>
<path d="M418.87 410.507L407.23 403.777C406.28 403.227 406.39 402.277 407.49 401.637L418.6 395.227C419.163 394.913 419.792 394.734 420.436 394.707C421.08 394.679 421.722 394.802 422.31 395.067L433.96 401.797C434.91 402.347 434.79 403.297 433.69 403.937L422.58 410.347C422.018 410.664 421.389 410.843 420.744 410.871C420.099 410.899 419.457 410.774 418.87 410.507Z" fill="#2B303F"/>
<path d="M220.83 296.167L201.25 284.857C200.3 284.307 200.42 283.357 201.51 282.717L212.63 276.307C213.19 275.99 213.818 275.811 214.461 275.783C215.104 275.755 215.744 275.88 216.33 276.147L235.96 287.457C236.91 288.007 236.79 288.967 235.69 289.597L224.54 295.997C223.978 296.313 223.349 296.493 222.705 296.523C222.061 296.552 221.419 296.43 220.83 296.167Z" fill="#2B303F"/>
<path d="M450.33 411.287L438.69 404.567C438.154 404.293 437.561 404.15 436.96 404.15C436.358 404.15 435.766 404.293 435.23 404.567L423.49 411.347C422.49 411.897 422.49 412.787 423.49 413.347L424.42 413.887C425.3 414.387 425.29 415.217 424.42 415.727L411.96 422.887C410.96 423.447 410.96 424.337 411.96 424.887L419.37 429.167C419.904 429.438 420.495 429.58 421.095 429.58C421.694 429.58 422.285 429.438 422.82 429.167L434.44 422.467L436.84 421.077L438.57 420.077L440.31 419.077L450.31 413.307C451.28 412.727 451.28 411.837 450.33 411.287Z" fill="#2B303F"/>
<path d="M165.02 319.297L153.38 312.577C152.38 312.027 152.55 311.067 153.64 310.437L164.76 303.997C165.322 303.684 165.95 303.508 166.592 303.482C167.235 303.456 167.875 303.581 168.46 303.847L180.11 310.567C181.06 311.117 180.94 312.077 179.84 312.707L168.73 319.127C168.168 319.443 167.539 319.623 166.895 319.653C166.251 319.682 165.609 319.56 165.02 319.297Z" fill="#2B303F"/>
<path d="M181.46 328.787L169.82 322.067C168.82 321.517 168.99 320.557 170.08 319.927L181.2 313.507C181.762 313.194 182.389 313.018 183.032 312.992C183.675 312.966 184.315 313.091 184.9 313.357L196.55 320.077C197.5 320.627 197.38 321.587 196.28 322.217L185.17 328.637C184.606 328.95 183.977 329.126 183.333 329.152C182.689 329.179 182.047 329.053 181.46 328.787Z" fill="#2B303F"/>
<path d="M197.9 338.277L186.26 331.557C185.26 331.007 185.42 330.047 186.52 329.417L197.63 322.997C198.194 322.684 198.823 322.508 199.467 322.482C200.111 322.456 200.753 322.581 201.34 322.847L212.96 329.567C213.91 330.117 213.79 331.077 212.69 331.707L201.58 338.127C201.02 338.435 200.396 338.609 199.758 338.635C199.119 338.661 198.483 338.539 197.9 338.277Z" fill="#2B303F"/>
<path d="M337.9 419.107L326.25 412.377C325.25 411.837 325.42 410.877 326.52 410.237L337.63 403.827C338.193 403.513 338.822 403.334 339.466 403.307C340.11 403.279 340.752 403.402 341.34 403.667L352.96 410.397C353.96 410.947 353.79 411.897 352.69 412.537L341.6 418.997C341.036 419.306 340.406 419.477 339.763 419.496C339.12 419.515 338.482 419.382 337.9 419.107Z" fill="#2B303F"/>
<path d="M354.33 428.597L342.69 421.877C341.69 421.327 341.86 420.367 342.95 419.737L354.07 413.317C354.632 413.004 355.259 412.828 355.902 412.802C356.545 412.776 357.185 412.901 357.77 413.167L369.42 419.887C370.42 420.437 370.25 421.397 369.15 422.027L358.04 428.447C357.476 428.76 356.847 428.936 356.203 428.962C355.559 428.989 354.917 428.863 354.33 428.597Z" fill="#2B303F"/>
<path d="M370.77 438.087L359.13 431.367C358.18 430.817 358.3 429.857 359.39 429.227L370.51 422.807C371.072 422.494 371.699 422.318 372.342 422.292C372.985 422.266 373.625 422.391 374.21 422.657L385.86 429.377C386.86 429.927 386.69 430.887 385.59 431.517L374.48 437.937C373.916 438.25 373.287 438.426 372.643 438.453C371.999 438.479 371.357 438.353 370.77 438.087Z" fill="#2B303F"/>
<path d="M387.21 447.577L375.57 440.857C374.62 440.307 374.74 439.347 375.83 438.717L386.96 432.297C387.522 431.984 388.15 431.808 388.792 431.782C389.435 431.756 390.075 431.881 390.66 432.147L402.31 438.867C403.31 439.417 403.14 440.377 402.04 441.007L390.96 447.427C390.391 447.746 389.755 447.927 389.103 447.953C388.451 447.979 387.802 447.85 387.21 447.577Z" fill="#2B303F"/>
<path d="M218.57 350.217L202.69 341.047C201.74 340.497 201.86 339.537 202.96 338.907L214.07 332.487C214.634 332.174 215.263 331.998 215.907 331.972C216.551 331.946 217.193 332.071 217.78 332.337L233.66 341.507C234.66 342.057 234.49 343.007 233.39 343.647L222.28 350.057C221.718 350.374 221.089 350.553 220.444 350.581C219.799 350.609 219.157 350.484 218.57 350.217Z" fill="#2B303F"/>
<path d="M321.46 409.617L305.58 400.447C304.58 399.897 304.75 398.937 305.84 398.307L316.96 391.887C317.522 391.574 318.15 391.398 318.792 391.372C319.435 391.346 320.075 391.471 320.66 391.737L336.54 400.907C337.49 401.457 337.37 402.407 336.28 403.047L325.16 409.457C324.6 409.774 323.972 409.953 323.329 409.981C322.686 410.009 322.046 409.884 321.46 409.617Z" fill="#2B303F"/>
<path d="M300.78 397.677L223.37 352.997C222.42 352.447 222.54 351.487 223.63 350.857L234.75 344.437C235.312 344.124 235.939 343.948 236.582 343.922C237.225 343.896 237.865 344.021 238.45 344.287L315.87 388.997C316.82 389.547 316.7 390.507 315.6 391.137L304.49 397.557C303.924 397.865 303.293 398.037 302.649 398.057C302.005 398.078 301.365 397.948 300.78 397.677Z" fill="#2B303F"/>
<path d="M225.85 317.517L214.21 310.797C213.26 310.247 213.38 309.287 214.48 308.657L225.59 302.237C226.152 301.924 226.779 301.748 227.422 301.722C228.065 301.696 228.705 301.821 229.29 302.087L240.96 308.807C241.96 309.357 241.79 310.317 240.69 310.947L229.58 317.367C229.014 317.683 228.381 317.861 227.733 317.888C227.085 317.914 226.44 317.787 225.85 317.517Z" fill="#2B303F"/>
<path d="M242.32 326.997L230.68 320.267C229.73 319.717 229.85 318.767 230.94 318.127L242.06 311.717C242.621 311.403 243.248 311.224 243.891 311.197C244.534 311.169 245.174 311.292 245.76 311.557L257.41 318.287C258.41 318.837 258.24 319.787 257.14 320.427L246.03 326.837C245.468 327.154 244.839 327.333 244.194 327.361C243.549 327.389 242.907 327.264 242.32 326.997Z" fill="#2B303F"/>
<path d="M258.79 336.527L247.14 329.807C246.14 329.257 246.31 328.297 247.41 327.667L258.52 321.247C259.084 320.934 259.713 320.758 260.357 320.732C261.001 320.706 261.643 320.831 262.23 321.097L273.87 327.817C274.87 328.367 274.71 329.327 273.61 329.957L262.5 336.377C261.936 336.69 261.307 336.866 260.663 336.893C260.019 336.919 259.377 336.793 258.79 336.527Z" fill="#2B303F"/>
<path d="M275.26 345.997L263.61 339.277C262.61 338.727 262.78 337.767 263.88 337.137L274.96 330.757C275.524 330.444 276.153 330.268 276.797 330.242C277.441 330.216 278.083 330.341 278.67 330.607L290.31 337.327C291.31 337.877 291.14 338.837 290.05 339.467L278.96 345.887C278.395 346.194 277.766 346.363 277.123 346.382C276.48 346.401 275.842 346.269 275.26 345.997Z" fill="#2B303F"/>
<path d="M291.72 355.547L280.08 348.827C279.08 348.277 279.25 347.317 280.34 346.687L291.46 340.267C292.022 339.954 292.65 339.778 293.292 339.752C293.935 339.726 294.575 339.851 295.16 340.117L306.81 346.837C307.81 347.387 307.64 348.347 306.54 348.977L295.43 355.397C294.866 355.71 294.237 355.886 293.593 355.912C292.949 355.939 292.307 355.813 291.72 355.547Z" fill="#2B303F"/>
<path d="M308.19 365.057L296.55 358.327C295.55 357.777 295.71 356.827 296.81 356.187L307.96 349.777C308.522 349.46 309.151 349.281 309.796 349.253C310.441 349.225 311.083 349.35 311.67 349.617L323.32 356.347C324.27 356.897 324.15 357.847 323.05 358.487L311.94 364.897C311.373 365.22 310.737 365.404 310.084 365.431C309.432 365.459 308.783 365.331 308.19 365.057Z" fill="#2B303F"/>
<path d="M324.66 374.557L313.01 367.837C312.06 367.287 312.18 366.327 313.28 365.697L324.39 359.277C324.954 358.964 325.583 358.788 326.227 358.762C326.871 358.736 327.513 358.861 328.1 359.127L339.74 365.847C340.74 366.397 340.57 367.357 339.48 367.987L328.36 374.407C327.798 374.72 327.17 374.896 326.528 374.922C325.885 374.948 325.245 374.823 324.66 374.557Z" fill="#2B303F"/>
<path d="M341.13 384.067L329.48 377.347C328.53 376.797 328.65 375.837 329.75 375.207L340.86 368.787C341.424 368.474 342.053 368.298 342.697 368.272C343.341 368.246 343.983 368.371 344.57 368.637L356.21 375.357C357.16 375.907 357.04 376.867 355.94 377.497L344.83 383.917C344.268 384.23 343.64 384.406 342.998 384.432C342.355 384.458 341.715 384.333 341.13 384.067Z" fill="#2B303F"/>
<path d="M357.59 393.577L345.96 386.857C345.01 386.307 345.13 385.347 346.22 384.717L357.34 378.297C357.902 377.984 358.53 377.808 359.172 377.782C359.815 377.756 360.455 377.881 361.04 378.147L372.69 384.867C373.64 385.417 373.52 386.377 372.42 387.007L361.31 393.427C360.745 393.742 360.114 393.919 359.468 393.945C358.822 393.971 358.179 393.845 357.59 393.577Z" fill="#2B303F"/>
<path d="M374.06 403.087L362.41 396.357C361.46 395.807 361.58 394.857 362.68 394.217L373.79 387.807C374.352 387.49 374.981 387.311 375.626 387.283C376.27 387.255 376.913 387.38 377.5 387.647L389.15 394.377C390.1 394.917 389.98 395.877 388.88 396.517L377.77 402.927C377.207 403.242 376.578 403.42 375.934 403.448C375.29 403.475 374.648 403.352 374.06 403.087Z" fill="#2B303F"/>
<path d="M390.53 412.587L378.88 405.867C377.93 405.317 378.05 404.357 379.15 403.727L390.26 397.307C390.824 396.994 391.453 396.818 392.097 396.792C392.741 396.766 393.383 396.891 393.97 397.157L405.61 403.877C406.61 404.427 406.44 405.387 405.35 406.017L394.23 412.437C393.668 412.75 393.04 412.926 392.398 412.952C391.755 412.978 391.115 412.853 390.53 412.587Z" fill="#2B303F"/>
<path d="M406.96 422.097L395.32 415.377C394.37 414.827 394.49 413.867 395.59 413.237L406.7 406.817C407.262 406.504 407.889 406.328 408.532 406.302C409.175 406.276 409.815 406.401 410.4 406.667L422.05 413.387C423 413.937 422.88 414.897 421.78 415.527L410.7 421.997C410.128 422.307 409.492 422.477 408.842 422.495C408.192 422.512 407.547 422.376 406.96 422.097Z" fill="#2B303F"/>
<path d="M209.39 307.997L185.3 294.097C184.3 293.547 184.47 292.587 185.57 291.957L196.68 285.537C197.244 285.224 197.873 285.048 198.517 285.022C199.161 284.996 199.803 285.121 200.39 285.387L224.47 299.287C225.47 299.837 225.3 300.797 224.21 301.427L213.09 307.847C212.528 308.16 211.901 308.336 211.258 308.362C210.615 308.388 209.975 308.263 209.39 307.997Z" fill="#2B303F"/>
<path d="M201.7 321.997L190.06 315.297C189.11 314.747 189.22 313.797 190.32 313.157L201.43 306.747C201.992 306.43 202.621 306.251 203.266 306.223C203.91 306.195 204.553 306.32 205.14 306.587L216.79 313.317C217.74 313.857 217.62 314.817 216.52 315.457L205.41 321.867C204.845 322.177 204.215 322.35 203.57 322.372C202.926 322.395 202.286 322.266 201.7 321.997Z" fill="#2B303F"/>
<path d="M218.17 331.527L206.52 324.807C205.57 324.257 205.69 323.297 206.79 322.667L217.9 316.247C218.464 315.934 219.093 315.758 219.737 315.732C220.381 315.706 221.023 315.831 221.61 316.097L233.25 322.817C234.25 323.367 234.08 324.327 232.99 324.957L221.87 331.377C221.308 331.69 220.68 331.866 220.038 331.892C219.395 331.918 218.755 331.793 218.17 331.527Z" fill="#2B303F"/>
<path d="M234.63 340.997L222.96 334.307C221.96 333.757 222.13 332.807 223.23 332.167L234.34 325.757C234.903 325.443 235.532 325.264 236.176 325.237C236.82 325.209 237.462 325.332 238.05 325.597L249.7 332.327C250.7 332.877 250.53 333.827 249.43 334.467L238.32 340.877C237.757 341.184 237.13 341.355 236.489 341.376C235.848 341.397 235.212 341.267 234.63 340.997Z" fill="#2B303F"/>
<path d="M251.09 350.537L239.45 343.817C238.45 343.267 238.62 342.307 239.72 341.677L250.83 335.257C251.392 334.944 252.019 334.768 252.662 334.742C253.305 334.716 253.944 334.841 254.53 335.107L266.18 341.827C267.13 342.377 267.01 343.337 265.91 343.967L254.8 350.387C254.236 350.7 253.607 350.876 252.963 350.902C252.318 350.929 251.677 350.803 251.09 350.537Z" fill="#2B303F"/>
<path d="M267.56 360.047L255.96 353.327C255.01 352.777 255.13 351.817 256.23 351.187L267.34 344.767C267.904 344.454 268.533 344.278 269.177 344.252C269.821 344.226 270.463 344.351 271.05 344.617L282.69 351.337C283.64 351.887 283.53 352.847 282.43 353.477L271.32 359.887C270.752 360.212 270.114 360.396 269.459 360.424C268.805 360.452 268.154 360.323 267.56 360.047Z" fill="#2B303F"/>
<path d="M284.02 369.547L272.38 362.827C271.43 362.277 271.55 361.317 272.64 360.687L283.76 354.267C284.322 353.954 284.95 353.778 285.592 353.752C286.235 353.726 286.875 353.851 287.46 354.117L299.11 360.837C300.06 361.387 299.94 362.347 298.84 362.977L287.73 369.397C287.166 369.71 286.537 369.886 285.893 369.912C285.249 369.939 284.607 369.813 284.02 369.547Z" fill="#2B303F"/>
<path d="M300.49 379.057L288.84 372.337C287.89 371.787 288.01 370.827 289.11 370.197L300.22 363.777C300.784 363.464 301.413 363.288 302.057 363.262C302.701 363.236 303.343 363.361 303.93 363.627L315.57 370.347C316.52 370.897 316.4 371.857 315.31 372.487L304.2 378.907C303.636 379.22 303.007 379.396 302.363 379.423C301.719 379.449 301.077 379.323 300.49 379.057Z" fill="#2B303F"/>
<path d="M316.96 388.567L305.32 381.837C304.37 381.287 304.49 380.337 305.58 379.697L316.7 373.287C317.26 372.97 317.888 372.791 318.531 372.763C319.174 372.735 319.814 372.86 320.4 373.127L332.05 379.857C333 380.397 332.88 381.357 331.78 381.997L320.67 388.407C320.107 388.722 319.478 388.9 318.834 388.928C318.19 388.955 317.548 388.832 316.96 388.567Z" fill="#2B303F"/>
<path d="M333.42 398.067L321.77 391.347C320.82 390.797 320.94 389.837 322.04 389.207L333.15 382.787C333.714 382.474 334.343 382.298 334.987 382.272C335.631 382.246 336.273 382.371 336.86 382.637L348.5 389.357C349.45 389.907 349.33 390.867 348.24 391.497L337.12 397.917C336.558 398.23 335.93 398.406 335.288 398.432C334.645 398.458 334.005 398.333 333.42 398.067Z" fill="#2B303F"/>
<path d="M349.88 407.577L338.24 400.847C337.29 400.307 337.41 399.347 338.5 398.707L349.62 392.297C350.181 391.983 350.808 391.804 351.451 391.777C352.094 391.749 352.734 391.872 353.32 392.137L364.96 398.867C365.91 399.417 365.79 400.367 364.69 401.007L353.58 407.417C353.019 407.732 352.392 407.911 351.749 407.939C351.106 407.966 350.466 407.843 349.88 407.577Z" fill="#2B303F"/>
<path d="M366.35 417.077L354.7 410.357C353.75 409.807 353.87 408.847 354.97 408.217L366.08 401.797C366.644 401.484 367.273 401.308 367.917 401.282C368.561 401.256 369.203 401.381 369.79 401.647L381.43 408.367C382.38 408.917 382.26 409.877 381.17 410.507L370.05 416.927C369.488 417.24 368.86 417.416 368.218 417.442C367.575 417.468 366.935 417.343 366.35 417.077Z" fill="#2B303F"/>
<path d="M403.19 438.357L371.19 419.867C370.24 419.317 370.35 418.357 371.45 417.727L382.56 411.307C383.124 410.994 383.753 410.818 384.397 410.792C385.041 410.766 385.683 410.891 386.27 411.157L418.27 429.647C419.22 430.187 419.1 431.147 418 431.787L406.89 438.197C406.328 438.51 405.701 438.687 405.059 438.715C404.417 438.743 403.777 438.62 403.19 438.357Z" fill="#2B303F"/>
<path d="M185.24 312.517L169.36 303.347C168.36 302.797 168.53 301.837 169.62 301.207L180.74 294.797C181.3 294.48 181.928 294.301 182.571 294.273C183.214 294.245 183.854 294.37 184.44 294.637L200.32 303.807C201.27 304.357 201.15 305.317 200.06 305.947L188.96 312.367C188.396 312.683 187.764 312.861 187.118 312.887C186.472 312.914 185.828 312.787 185.24 312.517Z" fill="#2B303F"/>
<path d="M467.67 401.127L233.83 266.127C232.83 265.587 233 264.627 234.1 263.987L239.66 260.787C240.221 260.473 240.848 260.295 241.491 260.267C242.134 260.239 242.774 260.362 243.36 260.627L477.2 395.627C478.15 396.177 478.03 397.127 476.93 397.767L471.38 400.997C470.815 401.307 470.185 401.48 469.54 401.502C468.896 401.525 468.256 401.396 467.67 401.127Z" fill="#2B303F"/>
<path d="M322.81 416.477C322.476 417.205 321.905 417.797 321.19 418.157L256.85 455.307C255.767 455.909 254.558 456.249 253.319 456.299C252.081 456.35 250.848 456.109 249.72 455.597L139.72 392.107C139.25 391.863 138.871 391.474 138.64 390.997C138.24 389.997 138.8 388.887 140.26 388.047L204.61 350.887C205.693 350.285 206.902 349.945 208.14 349.895C209.379 349.844 210.611 350.085 211.74 350.597L321.74 414.087C322.185 414.28 322.541 414.632 322.739 415.074C322.937 415.517 322.962 416.017 322.81 416.477Z" fill="#B1B4C4"/>
<path d="M322.81 416.477C322.476 417.205 321.905 417.797 321.19 418.157L256.85 455.307C255.767 455.909 254.558 456.249 253.319 456.299C252.081 456.35 250.848 456.109 249.72 455.597L139.72 392.107C139.25 391.863 138.871 391.474 138.64 390.997C138.981 390.277 139.551 389.69 140.26 389.327L204.61 352.177C205.693 351.574 206.901 351.233 208.139 351.181C209.377 351.129 210.611 351.367 211.74 351.877L321.74 415.377C322.207 415.617 322.583 416.004 322.81 416.477Z" fill="#C3C6D1"/>
<path d="M485.47 390.887L251.63 255.887C251.115 255.506 250.696 255.011 250.406 254.439C250.116 253.868 249.963 253.238 249.96 252.597V249.847C249.96 248.577 250.73 247.997 251.68 248.547L485.52 383.547C486.044 383.921 486.473 384.412 486.771 384.982C487.07 385.552 487.231 386.184 487.24 386.827V389.577C487.19 390.857 486.42 391.437 485.47 390.887Z" fill="#2B303F"/>
<path d="M286.96 242.557L263.86 229.247C260.97 227.577 258.62 223.087 258.62 219.247V194.477C258.62 190.617 260.97 188.847 263.86 190.477L286.96 203.827C289.86 205.497 292.2 209.987 292.2 213.827V238.597C292.16 242.457 289.82 244.227 286.96 242.557Z" fill="#E9EAF2"/>
<path d="M286.87 185.827L263.81 172.517C260.92 170.847 258.57 164.017 258.57 160.677V131.757C258.57 127.897 260.92 126.127 263.81 127.757L286.87 141.067C289.77 142.737 292.11 147.227 292.11 151.067V179.987C292.11 183.387 289.77 187.497 286.87 185.827Z" fill="#E9EAF2"/>
<path d="M275.47 166.507C270.78 163.797 266.96 157.177 266.96 151.757C266.96 146.337 270.78 144.127 275.47 146.837C280.16 149.547 283.99 156.167 283.99 161.587C283.99 167.007 280.17 169.217 275.47 166.507ZM275.47 149.357C271.98 147.357 269.14 148.987 269.14 153.017C269.254 155.22 269.887 157.364 270.987 159.276C272.087 161.187 273.623 162.812 275.47 164.017C278.97 166.017 281.81 164.397 281.81 160.367C281.696 158.162 281.063 156.015 279.961 154.101C278.859 152.188 277.32 150.562 275.47 149.357Z" fill="#8C50FF"/>
<path d="M277.81 162.497L273.95 156.357V151.247L276.13 152.507V156.477L279.25 161.427L277.81 162.497Z" fill="#8C50FF"/>
<path d="M286.84 124.657L263.78 111.347C260.89 109.667 258.54 102.147 258.54 98.7971V72.1771C258.54 68.8371 260.89 67.4771 263.78 69.1771L286.84 82.4971C288.366 83.4896 289.636 84.8284 290.546 86.4045C291.457 87.9806 291.982 89.7495 292.08 91.5671V118.197C292.08 121.507 289.74 126.327 286.84 124.657Z" fill="#E9EAF2"/>
<path d="M275.31 92.7471C273.92 91.9471 272.8 92.5971 272.8 94.2071C272.846 95.0786 273.098 95.9269 273.534 96.6828C273.97 97.4388 274.579 98.081 275.31 98.5571C276.7 99.3571 277.83 98.7071 277.83 97.1071C277.78 96.2339 277.526 95.3845 277.089 94.6272C276.651 93.87 276.042 93.226 275.31 92.7471ZM282.02 93.7471L280.02 92.5871C279.696 92.366 279.462 92.0361 279.36 91.6571L278.84 89.5471C278.731 89.1689 278.494 88.8402 278.17 88.6171L272.47 85.3271C272.19 85.1671 271.9 85.2371 271.81 85.4971L271.29 86.9971C271.264 87.0576 271.225 87.1114 271.175 87.1543C271.125 87.1972 271.066 87.2281 271.002 87.2445C270.938 87.2609 270.871 87.2625 270.807 87.2491C270.742 87.2357 270.682 87.2076 270.63 87.1671L268.63 86.0071C267.71 85.4671 266.96 85.9071 266.96 87.0071V95.7271C266.992 96.3075 267.159 96.8723 267.449 97.3761C267.739 97.8798 268.144 98.3083 268.63 98.6271L282.05 106.377C282.97 106.907 283.73 106.477 283.73 105.377V96.6271C283.694 96.0417 283.52 95.4732 283.223 94.9676C282.926 94.462 282.514 94.0336 282.02 93.7171V93.7471ZM275.31 100.527C274.091 99.73 273.077 98.6576 272.35 97.3965C271.622 96.1354 271.201 94.7209 271.12 93.2671C271.12 90.5871 273 89.5071 275.31 90.8471C276.531 91.6412 277.547 92.7129 278.276 93.9746C279.004 95.2363 279.423 96.6523 279.5 98.1071C279.5 100.747 277.63 101.837 275.31 100.497V100.527ZM281.43 96.6971C281.262 96.5876 281.121 96.44 281.021 96.2663C280.92 96.0926 280.861 95.8976 280.85 95.6971C280.85 95.3171 281.11 95.1671 281.43 95.3571C281.6 95.4655 281.742 95.6125 281.845 95.7863C281.947 95.9601 282.007 96.1557 282.02 96.3571C282.02 96.7071 281.76 96.8571 281.43 96.6671V96.6971Z" fill="#8C50FF"/>
<path d="M282.59 218.347C282.59 222.857 275.52 228.717 275.52 228.717C275.52 228.717 268.44 214.717 268.44 210.177C268.44 205.637 271.61 203.837 275.52 206.087C277.579 207.432 279.292 209.242 280.52 211.372C281.748 213.502 282.457 215.892 282.59 218.347Z" fill="#8C50FF"/>
<path d="M278.79 219.619C280.598 218.575 280.599 215.193 278.793 212.065C276.987 208.937 274.058 207.247 272.25 208.291C270.442 209.335 270.44 212.717 272.246 215.845C274.052 218.973 276.982 220.663 278.79 219.619Z" fill="#E9EAF2"/>
<path d="M450.09 278.997L310.48 198.387C308.12 197.037 306.22 193.387 306.22 190.257V96.4271C306.22 93.2971 308.12 91.8571 310.48 93.2171L450.09 173.817C452.44 175.177 454.34 178.817 454.34 181.957V275.777C454.34 278.917 452.44 280.357 450.09 278.997Z" fill="#E9EAF2"/>
<path d="M433.96 210.787L325.75 148.317C323.13 146.797 321 142.737 321 139.247V132.177C321 128.677 323.13 127.077 325.75 128.587L433.96 191.057C436.58 192.567 438.7 196.627 438.7 200.127V207.197C438.7 210.697 436.58 212.297 433.96 210.787Z" fill="white"/>
<path d="M375.11 208.597L325.75 180.097C323.13 178.587 321 174.527 321 171.027V163.997C321 160.497 323.13 158.897 325.75 160.407L375.11 188.907C377.73 190.417 379.85 194.477 379.85 197.977V204.997C379.85 208.497 377.73 210.107 375.11 208.597Z" fill="#8C50FF"/>
<path d="M478.82 299.637C478.82 299.637 426.19 311.237 383.64 263.977C341.09 216.717 306.38 222.777 306.38 222.777V252.277L478.82 351.827V299.637Z" fill="url(#paint2_linear)"/>
<path d="M478.82 299.637C478.82 299.637 426.19 311.237 383.64 263.977C341.09 216.717 306.38 222.777 306.38 222.777" stroke="#CCCEDD" stroke-width="1.06" stroke-miterlimit="10"/>
<path d="M306.15 52.3971C304.611 55.1487 302.741 57.7011 300.58 59.9971C299.98 60.6971 295.35 58.9271 296.32 58.4271C297.29 57.9271 300.32 53.7071 301.84 50.8871C303.112 47.5204 304.193 44.085 305.08 40.5971C306.03 37.1471 306.85 32.0871 307.55 29.7071C307.729 28.828 308.158 28.0194 308.787 27.3789C309.415 26.7384 310.215 26.2932 311.09 26.0971C312.76 25.7071 313.84 26.1671 313.53 28.1871C312.96 31.7071 310.23 45.4471 306.15 52.3971Z" fill="#FFCEA9"/>
<path d="M308.8 106.247C307.37 107.417 305.25 106.347 305.14 106.457C303.455 108.019 301.689 109.491 299.85 110.867C298.95 111.567 297.56 112.507 297.85 113.867C298.3 116.277 302.17 115.537 303.63 114.797C305.09 114.057 306.29 112.797 307.63 111.977C308.63 111.357 309.63 111.047 309.74 109.797C309.83 109.047 309.06 106.217 308.8 106.247Z" fill="#38226D"/>
<path d="M309.72 109.297C309.53 110.487 308.57 110.817 307.59 111.427C306.19 112.297 304.95 113.557 303.49 114.297C302.03 115.037 298.78 115.657 297.83 113.927C298.34 116.257 302.15 115.527 303.59 114.797C305.03 114.067 306.25 112.797 307.59 111.977C308.59 111.357 309.59 111.047 309.7 109.797C309.72 109.631 309.727 109.464 309.72 109.297Z" fill="#9C73FF"/>
<path d="M294.24 97.8571C292.81 99.0271 290.3 97.7571 290.19 97.8571C288.7 99.374 287.121 100.8 285.46 102.127C284.56 102.837 283.17 103.777 283.46 105.127C283.91 107.547 287.78 106.807 289.25 106.067C290.72 105.327 291.9 104.067 293.25 103.237C294.25 102.627 295.25 102.307 295.36 101.067C295.44 100.317 294.5 97.8271 294.24 97.8571Z" fill="#38226D"/>
<path d="M295.31 100.737C295.12 101.927 294.16 102.257 293.18 102.867C291.78 103.737 290.54 104.997 289.08 105.737C287.62 106.477 284.36 107.097 283.42 105.367C283.93 107.697 287.73 106.967 289.18 106.237C290.63 105.507 291.83 104.237 293.18 103.407C294.18 102.797 295.18 102.487 295.29 101.237C295.31 101.071 295.317 100.904 295.31 100.737Z" fill="#9C73FF"/>
<path d="M327.96 60.2371C329.55 70.1771 325.14 73.8871 319.4 75.9971C315.28 77.5171 309.4 79.8571 309.4 79.8571C309.4 79.8571 309.48 82.0371 309.52 86.9271C309.52 91.2371 309 106.927 309 106.927C308.32 107.277 307.565 107.46 306.8 107.46C306.035 107.46 305.281 107.277 304.6 106.927C304.6 106.927 302.29 94.8771 301.8 89.4371C301.13 82.0671 300 77.2371 300.38 75.6471C300.71 74.2471 308.77 70.2871 311.33 68.1671L294.44 73.8271C294.776 75.6577 294.94 77.5158 294.93 79.3771C294.78 85.2271 294.45 97.8971 294.45 97.8971C294.45 97.8971 292.14 99.5671 290.16 97.8971C290.16 97.8971 285.91 72.8271 286.43 69.5071C286.92 66.3571 301.8 59.9171 304.43 57.6971C304.887 57.3257 305.417 57.0545 305.985 56.9012C306.554 56.7479 307.148 56.7158 307.73 56.8071L327.96 60.2371Z" fill="#8C50FF"/>
<path d="M287.5 64.3771L298.85 57.8271C298.948 57.768 299.06 57.7368 299.175 57.7368C299.29 57.7368 299.402 57.768 299.5 57.8271L319.4 69.3171L307.73 76.0571L287.5 64.3771Z" fill="#F4F4F4"/>
<path d="M308.26 73.6471L309.13 74.1471C309.2 74.1471 309.19 74.2571 309.13 74.3071L308.3 74.7871C308.258 74.8068 308.212 74.8169 308.165 74.8169C308.118 74.8169 308.072 74.8068 308.03 74.7871L307.16 74.2871C307.09 74.2871 307.1 74.1771 307.16 74.1271L307.99 73.6471C308.032 73.6274 308.078 73.6172 308.125 73.6172C308.172 73.6172 308.218 73.6274 308.26 73.6471Z" fill="#3A2C6D"/>
<path d="M307.04 72.9971L307.9 73.4871C307.97 73.4871 307.96 73.6071 307.9 73.6471L307.08 74.1271C307.037 74.149 306.989 74.1605 306.94 74.1605C306.891 74.1605 306.843 74.149 306.8 74.1271L305.94 73.6271C305.87 73.6271 305.88 73.5171 305.94 73.4671L306.76 72.9971C306.803 72.9725 306.851 72.9596 306.9 72.9596C306.949 72.9596 306.997 72.9725 307.04 72.9971Z" fill="#3A2C6D"/>
<path d="M305.8 72.2271L306.66 72.7271C306.73 72.7271 306.73 72.8371 306.66 72.8871L305.84 73.3571C305.797 73.379 305.749 73.3905 305.7 73.3905C305.651 73.3905 305.603 73.379 305.56 73.3571L304.7 72.8571C304.63 72.8571 304.64 72.7471 304.7 72.6971L305.52 72.2171C305.564 72.1966 305.613 72.1869 305.661 72.1886C305.71 72.1904 305.757 72.2035 305.8 72.2271Z" fill="#3A2C6D"/>
<path d="M304.59 71.5271L305.45 72.0271C305.52 72.0271 305.52 72.1371 305.45 72.1871L304.63 72.6671C304.586 72.687 304.538 72.6972 304.49 72.6972C304.442 72.6972 304.394 72.687 304.35 72.6671L303.49 72.1671C303.42 72.1671 303.43 72.0571 303.49 72.0071L304.31 71.5271C304.354 71.5072 304.402 71.4969 304.45 71.4969C304.498 71.4969 304.546 71.5072 304.59 71.5271Z" fill="#3A2C6D"/>
<path d="M303.36 70.8171L304.23 71.3171C304.3 71.3171 304.29 71.4371 304.23 71.4771L303.4 71.9571C303.358 71.979 303.312 71.9904 303.265 71.9904C303.218 71.9904 303.172 71.979 303.13 71.9571L302.26 71.4571C302.19 71.4571 302.2 71.3471 302.26 71.2971L303.09 70.8271C303.131 70.8036 303.177 70.7905 303.224 70.7887C303.271 70.787 303.318 70.7967 303.36 70.8171Z" fill="#3A2C6D"/>
<path d="M302.14 70.1171L303.01 70.6171C303.08 70.6171 303.07 70.7271 303.01 70.7771L302.18 71.2471C302.138 71.269 302.092 71.2804 302.045 71.2804C301.998 71.2804 301.952 71.269 301.91 71.2471L301.04 70.7471C300.97 70.7471 300.98 70.6371 301.04 70.5971L301.87 70.1171C301.912 70.0952 301.958 70.0837 302.005 70.0837C302.052 70.0837 302.098 70.0952 302.14 70.1171Z" fill="#3A2C6D"/>
<path d="M300.96 69.4071L301.82 69.9071C301.89 69.9071 301.88 70.0171 301.82 70.0671L301 70.5471C300.956 70.567 300.908 70.5772 300.86 70.5772C300.812 70.5772 300.764 70.567 300.72 70.5471L299.86 70.0471C299.79 70.0471 299.79 69.9371 299.86 69.8871L300.68 69.4071C300.724 69.3872 300.772 69.3769 300.82 69.3769C300.868 69.3769 300.916 69.3872 300.96 69.4071Z" fill="#3A2C6D"/>
<path d="M299.69 68.6971L300.56 69.1971C300.63 69.1971 300.62 69.3171 300.56 69.3571L299.73 69.8371C299.688 69.859 299.642 69.8704 299.595 69.8704C299.548 69.8704 299.502 69.859 299.46 69.8371L298.59 69.3371C298.52 69.3371 298.53 69.2271 298.59 69.1771L299.42 68.7071C299.461 68.6836 299.507 68.6705 299.554 68.6687C299.601 68.667 299.648 68.6767 299.69 68.6971Z" fill="#3A2C6D"/>
<path d="M298.47 67.9971L299.33 68.4971C299.4 68.4971 299.39 68.6071 299.33 68.6571L298.51 69.1271C298.467 69.1491 298.419 69.1605 298.37 69.1605C298.321 69.1605 298.273 69.1491 298.23 69.1271L297.37 68.6271C297.3 68.6271 297.31 68.5171 297.37 68.4771L298.19 67.9971C298.233 67.9751 298.281 67.9637 298.33 67.9637C298.379 67.9637 298.427 67.9751 298.47 67.9971Z" fill="#3A2C6D"/>
<path d="M297.24 67.2871L298.11 67.7871C298.18 67.7871 298.17 67.8971 298.11 67.9471L297.28 68.4271C297.238 68.4468 297.192 68.4569 297.145 68.4569C297.098 68.4569 297.052 68.4468 297.01 68.4271L296.14 67.9271C296.07 67.9271 296.08 67.8171 296.14 67.7671L296.97 67.2871C297.012 67.2652 297.058 67.2537 297.105 67.2537C297.152 67.2537 297.198 67.2652 297.24 67.2871Z" fill="#3A2C6D"/>
<path d="M296.02 66.5771L296.88 67.0771C296.95 67.0771 296.95 67.1871 296.88 67.2371L296.06 67.7171C296.017 67.739 295.969 67.7505 295.92 67.7505C295.871 67.7505 295.823 67.739 295.78 67.7171L294.92 67.2171C294.85 67.2171 294.86 67.1071 294.92 67.0571L295.74 66.5871C295.783 66.5635 295.83 66.5504 295.879 66.5486C295.927 66.5469 295.976 66.5566 296.02 66.5771Z" fill="#3A2C6D"/>
<path d="M294.8 65.8771L295.66 66.3771C295.73 66.3771 295.72 66.4871 295.66 66.5371L294.83 67.0071C294.788 67.029 294.742 67.0404 294.695 67.0404C294.648 67.0404 294.602 67.029 294.56 67.0071L293.69 66.5071C293.62 66.5071 293.63 66.3971 293.69 66.3471L294.52 65.8771C294.563 65.8551 294.611 65.8437 294.66 65.8437C294.709 65.8437 294.757 65.8551 294.8 65.8771Z" fill="#3A2C6D"/>
<path d="M293.57 65.1671L294.44 65.6671C294.51 65.6671 294.5 65.7771 294.44 65.8271L293.61 66.2971C293.568 66.319 293.522 66.3304 293.475 66.3304C293.428 66.3304 293.382 66.319 293.34 66.2971L292.47 65.7971C292.4 65.7971 292.41 65.6771 292.47 65.6371L293.3 65.1571C293.342 65.1367 293.389 65.127 293.436 65.1287C293.483 65.1305 293.529 65.1436 293.57 65.1671Z" fill="#3A2C6D"/>
<path d="M291.76 64.1171L293.21 64.9571C293.28 64.9571 293.27 65.0671 293.21 65.1171L292.39 65.5971C292.346 65.617 292.298 65.6272 292.25 65.6272C292.202 65.6272 292.154 65.617 292.11 65.5971L290.66 64.7571C290.59 64.7571 290.59 64.6471 290.66 64.5971L291.48 64.1171C291.524 64.0972 291.572 64.0869 291.62 64.0869C291.668 64.0869 291.716 64.0972 291.76 64.1171Z" fill="#3A2C6D"/>
<path d="M307.63 71.9171L308.5 72.4171C308.57 72.4171 308.56 72.5271 308.5 72.5771L307.67 73.0471C307.629 73.0718 307.583 73.0849 307.535 73.0849C307.487 73.0849 307.441 73.0718 307.4 73.0471L306.53 72.5571C306.46 72.5571 306.47 72.4371 306.53 72.3971L307.36 71.9171C307.402 71.8952 307.448 71.8837 307.495 71.8837C307.542 71.8837 307.588 71.8952 307.63 71.9171Z" fill="#3A2C6D"/>
<path d="M306.41 71.2071L307.27 71.7071C307.34 71.7071 307.33 71.8171 307.27 71.8671L306.45 72.3471C306.406 72.367 306.358 72.3772 306.31 72.3772C306.262 72.3772 306.214 72.367 306.17 72.3471L305.31 71.8471C305.24 71.8471 305.24 71.7371 305.31 71.6871L306.13 71.2071C306.173 71.1851 306.221 71.1737 306.27 71.1737C306.319 71.1737 306.367 71.1851 306.41 71.2071Z" fill="#3A2C6D"/>
<path d="M305.18 70.4971L306.04 70.9971C306.12 70.9971 306.11 71.1071 306.04 71.1571L305.22 71.6371C305.176 71.657 305.128 71.6672 305.08 71.6672C305.032 71.6672 304.984 71.657 304.94 71.6371L304.08 71.1371C304.01 71.1371 304.02 71.0271 304.08 70.9771L304.9 70.4971C304.944 70.4772 304.992 70.4669 305.04 70.4669C305.088 70.4669 305.136 70.4772 305.18 70.4971Z" fill="#3A2C6D"/>
<path d="M303.96 69.7871L304.83 70.2871C304.9 70.2871 304.89 70.4071 304.83 70.4471L304 70.9271C303.958 70.949 303.912 70.9604 303.865 70.9604C303.818 70.9604 303.772 70.949 303.73 70.9271L302.86 70.4271C302.79 70.4271 302.8 70.3171 302.86 70.2671L303.69 69.7971C303.731 69.7736 303.777 69.7605 303.824 69.7587C303.871 69.757 303.918 69.7667 303.96 69.7871Z" fill="#3A2C6D"/>
<path d="M302.74 69.0871L303.6 69.5871C303.67 69.5871 303.66 69.6971 303.6 69.7471L302.78 70.2271C302.736 70.247 302.688 70.2572 302.64 70.2572C302.592 70.2572 302.544 70.247 302.5 70.2271L301.64 69.7271C301.57 69.7271 301.57 69.6171 301.64 69.5671L302.46 69.0871C302.504 69.0672 302.552 69.0569 302.6 69.0569C302.648 69.0569 302.696 69.0672 302.74 69.0871Z" fill="#3A2C6D"/>
<path d="M301.51 68.3771L302.38 68.8771C302.45 68.8771 302.44 68.9971 302.38 69.0371L301.55 69.5171C301.508 69.539 301.462 69.5504 301.415 69.5504C301.368 69.5504 301.322 69.539 301.28 69.5171L300.41 69.0171C300.34 69.0171 300.35 68.9071 300.41 68.8571L301.24 68.3871C301.281 68.3636 301.327 68.3505 301.374 68.3487C301.421 68.347 301.468 68.3567 301.51 68.3771Z" fill="#3A2C6D"/>
<path d="M300.28 67.6771L301.15 68.1771C301.22 68.1771 301.21 68.2871 301.15 68.3271L300.32 68.8071C300.278 68.829 300.232 68.8404 300.185 68.8404C300.138 68.8404 300.092 68.829 300.05 68.8071L299.18 68.3071C299.11 68.3071 299.12 68.1971 299.18 68.1471L300.01 67.6771C300.052 67.6552 300.098 67.6437 300.145 67.6437C300.192 67.6437 300.238 67.6552 300.28 67.6771Z" fill="#3A2C6D"/>
<path d="M299.06 66.9971L299.92 67.4971C299.99 67.4971 299.98 67.6071 299.92 67.6571L299.1 68.1271C299.057 68.1491 299.009 68.1605 298.96 68.1605C298.911 68.1605 298.863 68.1491 298.82 68.1271L297.96 67.6271C297.89 67.6271 297.9 67.5171 297.96 67.4771L298.78 66.9971C298.823 66.9751 298.871 66.9637 298.92 66.9637C298.969 66.9637 299.017 66.9751 299.06 66.9971Z" fill="#3A2C6D"/>
<path d="M297.83 66.2571L298.7 66.7571C298.77 66.7571 298.76 66.8671 298.7 66.9171L297.87 67.3871C297.828 67.409 297.782 67.4204 297.735 67.4204C297.688 67.4204 297.642 67.409 297.6 67.3871L296.73 66.8871C296.66 66.8871 296.67 66.7671 296.73 66.7271L297.56 66.2471C297.602 66.2267 297.649 66.217 297.696 66.2187C297.743 66.2205 297.789 66.2336 297.83 66.2571Z" fill="#3A2C6D"/>
<path d="M296.61 65.5471L297.47 66.0471C297.54 66.0471 297.53 66.1571 297.47 66.2071L296.64 66.6871C296.598 66.7068 296.552 66.717 296.505 66.717C296.458 66.717 296.412 66.7068 296.37 66.6871L295.5 66.1871C295.43 66.1871 295.44 66.0771 295.5 66.0271L296.33 65.5471C296.374 65.5272 296.422 65.5169 296.47 65.5169C296.518 65.5169 296.566 65.5272 296.61 65.5471Z" fill="#3A2C6D"/>
<path d="M295.38 64.8371L296.24 65.3371C296.31 65.3371 296.31 65.4471 296.24 65.4971L295.42 65.9771C295.377 65.999 295.329 66.0105 295.28 66.0105C295.231 66.0105 295.183 65.999 295.14 65.9771L294.28 65.4771C294.21 65.4771 294.22 65.3671 294.28 65.3171L295.1 64.8371C295.144 64.8172 295.192 64.8069 295.24 64.8069C295.288 64.8069 295.336 64.8172 295.38 64.8371Z" fill="#3A2C6D"/>
<path d="M294.15 64.1371L295.02 64.6271C295.09 64.6271 295.08 64.7471 295.02 64.7871L294.19 65.2671C294.148 65.289 294.102 65.3004 294.055 65.3004C294.008 65.3004 293.962 65.289 293.92 65.2671L293.05 64.7671C292.98 64.7671 292.99 64.6571 293.05 64.6071L293.88 64.1371C293.921 64.1124 293.967 64.0993 294.015 64.0993C294.063 64.0993 294.109 64.1124 294.15 64.1371Z" fill="#3A2C6D"/>
<path d="M308.86 72.6271L310.31 73.4671C310.38 73.4671 310.38 73.5771 310.31 73.6271L309.49 74.0971C309.447 74.119 309.399 74.1305 309.35 74.1305C309.301 74.1305 309.253 74.119 309.21 74.0971L307.76 73.2571C307.69 73.2571 307.7 73.1471 307.76 73.0971L308.58 72.6271C308.623 72.6051 308.671 72.5937 308.72 72.5937C308.769 72.5937 308.817 72.6051 308.86 72.6271Z" fill="#3A2C6D"/>
<path d="M291.82 64.0771L292.68 64.5771C292.721 64.5966 292.765 64.6067 292.81 64.6067C292.855 64.6067 292.899 64.5966 292.94 64.5771L293.81 64.0671C293.825 64.0614 293.839 64.0512 293.848 64.0378C293.857 64.0243 293.862 64.0084 293.862 63.9921C293.862 63.9757 293.857 63.9598 293.848 63.9464C293.839 63.933 293.825 63.9228 293.81 63.9171H293.74C293.68 63.9171 293.68 63.8271 293.74 63.7871L294.66 63.2571C294.74 63.2571 294.74 63.1471 294.66 63.1071L294.11 62.7871C294.069 62.7676 294.025 62.7574 293.98 62.7574C293.935 62.7574 293.891 62.7676 293.85 62.7871L292.99 63.2871L292.81 63.3871L292.68 63.4671L292.55 63.5371L291.81 63.9671C291.797 63.9832 291.791 64.0036 291.793 64.0241C291.795 64.0446 291.805 64.0635 291.82 64.0771Z" fill="#3A2C6D"/>
<path d="M312.96 70.9071L313.83 71.4071C313.9 71.4071 313.89 71.5171 313.83 71.5671L313 72.0371C312.959 72.0618 312.913 72.0749 312.865 72.0749C312.817 72.0749 312.771 72.0618 312.73 72.0371L311.86 71.5471C311.79 71.4971 311.8 71.4271 311.86 71.3871L312.69 70.9071C312.732 70.8852 312.778 70.8737 312.825 70.8737C312.872 70.8737 312.918 70.8852 312.96 70.9071Z" fill="#3A2C6D"/>
<path d="M311.78 70.1971L312.65 70.6971C312.72 70.6971 312.71 70.8171 312.65 70.8571L311.82 71.3371C311.778 71.359 311.732 71.3704 311.685 71.3704C311.638 71.3704 311.592 71.359 311.55 71.3371L310.68 70.8371C310.61 70.8371 310.62 70.7271 310.68 70.6771L311.51 70.2071C311.551 70.1836 311.597 70.1705 311.644 70.1687C311.691 70.167 311.738 70.1767 311.78 70.1971Z" fill="#3A2C6D"/>
<path d="M310.56 69.4971L311.43 69.9971C311.5 69.9971 311.49 70.1071 311.43 70.1571L310.6 70.6271C310.558 70.649 310.512 70.6604 310.465 70.6604C310.418 70.6604 310.372 70.649 310.33 70.6271L309.46 70.1271C309.39 70.1271 309.4 70.0071 309.46 69.9671L310.29 69.4871C310.332 69.4667 310.379 69.457 310.426 69.4587C310.473 69.4605 310.519 69.4736 310.56 69.4971Z" fill="#3A2C6D"/>
<path d="M300.17 63.4971L301.03 63.9971C301.1 63.9971 301.09 64.1071 301.03 64.1571L300.21 64.6271C300.167 64.6491 300.119 64.6605 300.07 64.6605C300.021 64.6605 299.973 64.6491 299.93 64.6271L299.07 64.1271C298.99 64.1271 299 64.0171 299.07 63.9671L299.89 63.4971C299.933 63.4751 299.981 63.4637 300.03 63.4637C300.079 63.4637 300.127 63.4751 300.17 63.4971Z" fill="#3A2C6D"/>
<path d="M298.96 62.7871L299.83 63.2871C299.9 63.2871 299.89 63.3971 299.83 63.4471L299 63.9271C298.958 63.9468 298.912 63.9569 298.865 63.9569C298.818 63.9569 298.772 63.9468 298.73 63.9271L297.86 63.4271C297.79 63.4271 297.8 63.3171 297.86 63.2671L298.69 62.7871C298.732 62.7674 298.778 62.7572 298.825 62.7572C298.872 62.7572 298.918 62.7674 298.96 62.7871Z" fill="#3A2C6D"/>
<path d="M297.72 62.0871L298.59 62.5871C298.66 62.5871 298.65 62.6971 298.59 62.7471L297.76 63.2171C297.718 63.239 297.672 63.2504 297.625 63.2504C297.578 63.2504 297.532 63.239 297.49 63.2171L296.62 62.7171C296.55 62.7171 296.56 62.6071 296.62 62.5671L297.45 62.0871C297.492 62.0652 297.538 62.0537 297.585 62.0537C297.632 62.0537 297.678 62.0652 297.72 62.0871Z" fill="#3A2C6D"/>
<path d="M296.5 61.3771L297.37 61.8771C297.44 61.8771 297.43 61.9871 297.37 62.0371L296.54 62.5171C296.498 62.5368 296.452 62.5469 296.405 62.5469C296.358 62.5469 296.312 62.5368 296.27 62.5171L295.4 62.0171C295.33 62.0171 295.34 61.9071 295.4 61.8571L296.23 61.3771C296.272 61.3574 296.318 61.3472 296.365 61.3472C296.412 61.3472 296.458 61.3574 296.5 61.3771Z" fill="#3A2C6D"/>
<path d="M309.03 68.6071L310.21 69.2871C310.28 69.2871 310.27 69.4071 310.21 69.4471L309.38 69.9271C309.338 69.949 309.292 69.9604 309.245 69.9604C309.198 69.9604 309.152 69.949 309.11 69.9271L307.96 69.2571C307.89 69.2571 307.89 69.1471 307.96 69.0971L308.78 68.6171C308.859 68.5821 308.948 68.5785 309.03 68.6071Z" fill="#3A2C6D"/>
<path d="M301.39 64.1971L302.57 64.8771C302.64 64.8771 302.63 64.9871 302.57 65.0371L301.74 65.5171C301.698 65.5368 301.652 65.5469 301.605 65.5469C301.558 65.5469 301.512 65.5368 301.47 65.5171L300.29 64.8371C300.22 64.8371 300.22 64.7271 300.29 64.6771L301.11 64.1971C301.154 64.1772 301.202 64.1669 301.25 64.1669C301.298 64.1669 301.346 64.1772 301.39 64.1971Z" fill="#3A2C6D"/>
<path d="M302.96 65.0871L308.71 68.4071C308.78 68.4071 308.77 68.5171 308.71 68.5671L307.89 69.0371C307.847 69.0591 307.799 69.0705 307.75 69.0705C307.701 69.0705 307.653 69.0591 307.61 69.0371L301.86 65.7171C301.79 65.7171 301.8 65.6071 301.86 65.5671L302.69 65.0871C302.732 65.0652 302.778 65.0537 302.825 65.0537C302.872 65.0537 302.918 65.0652 302.96 65.0871Z" fill="#3A2C6D"/>
<path d="M308.49 70.9971L309.35 71.4971C309.42 71.4971 309.41 71.6071 309.35 71.6571L308.53 72.1371C308.486 72.157 308.438 72.1672 308.39 72.1672C308.342 72.1672 308.294 72.157 308.25 72.1371L307.39 71.6371C307.32 71.6371 307.32 71.5271 307.39 71.4771L308.21 70.9971C308.254 70.9772 308.302 70.9669 308.35 70.9669C308.398 70.9669 308.446 70.9772 308.49 70.9971Z" fill="#3A2C6D"/>
<path d="M307.26 70.3271L308.13 70.8271C308.2 70.8271 308.19 70.9471 308.13 70.9871L307.3 71.4671C307.258 71.489 307.212 71.5004 307.165 71.5004C307.118 71.5004 307.072 71.489 307.03 71.4671L306.16 70.9671C306.09 70.9671 306.1 70.8571 306.16 70.8071L306.99 70.3371C307.031 70.3136 307.077 70.3005 307.124 70.2987C307.171 70.297 307.218 70.3067 307.26 70.3271Z" fill="#3A2C6D"/>
<path d="M306.04 69.6271L306.91 70.1271C306.98 70.1271 306.97 70.2371 306.91 70.2871L306.08 70.7571C306.037 70.779 305.989 70.7905 305.94 70.7905C305.891 70.7905 305.843 70.779 305.8 70.7571L304.94 70.2571C304.87 70.2071 304.88 70.1371 304.94 70.0971L305.77 69.6171C305.812 69.5967 305.859 69.587 305.906 69.5887C305.953 69.5905 305.999 69.6036 306.04 69.6271Z" fill="#3A2C6D"/>
<path d="M304.82 68.9171L305.68 69.4171C305.75 69.4171 305.74 69.5271 305.68 69.5771L304.86 70.0571C304.816 70.077 304.768 70.0872 304.72 70.0872C304.672 70.0872 304.624 70.077 304.58 70.0571L303.72 69.5571C303.65 69.5571 303.66 69.4471 303.72 69.3971L304.54 68.9171C304.584 68.8972 304.632 68.8869 304.68 68.8869C304.728 68.8869 304.776 68.8972 304.82 68.9171Z" fill="#3A2C6D"/>
<path d="M303.59 68.2171L304.46 68.7171C304.53 68.7171 304.52 68.8271 304.46 68.8771L303.63 69.3471C303.588 69.369 303.542 69.3804 303.495 69.3804C303.448 69.3804 303.402 69.369 303.36 69.3471L302.49 68.8471C302.42 68.8471 302.43 68.7371 302.49 68.6871L303.32 68.2171C303.362 68.1952 303.408 68.1837 303.455 68.1837C303.502 68.1837 303.548 68.1952 303.59 68.2171Z" fill="#3A2C6D"/>
<path d="M302.37 67.5071L303.24 68.0071C303.31 68.0071 303.3 68.1171 303.24 68.1671L302.41 68.6471C302.368 68.6668 302.322 68.6769 302.275 68.6769C302.228 68.6769 302.182 68.6668 302.14 68.6471L301.27 68.1471C301.2 68.1471 301.21 68.0371 301.27 67.9871L302.1 67.5071C302.142 67.4874 302.188 67.4772 302.235 67.4772C302.282 67.4772 302.328 67.4874 302.37 67.5071Z" fill="#3A2C6D"/>
<path d="M301.15 66.7971L302.01 67.2971C302.08 67.2971 302.08 67.4171 302.01 67.4571L301.19 67.9371C301.147 67.959 301.099 67.9705 301.05 67.9705C301.001 67.9705 300.953 67.959 300.91 67.9371L300.05 67.4371C299.98 67.4371 299.99 67.3271 300.05 67.2771L300.87 66.8071C300.913 66.7835 300.96 66.7704 301.009 66.7686C301.057 66.7669 301.106 66.7766 301.15 66.7971Z" fill="#3A2C6D"/>
<path d="M299.96 66.0971L300.82 66.5971C300.89 66.5971 300.88 66.7071 300.82 66.7571L300 67.2271C299.957 67.2516 299.909 67.2646 299.86 67.2646C299.811 67.2646 299.763 67.2516 299.72 67.2271L298.86 66.7371C298.79 66.7371 298.79 66.6171 298.86 66.5771L299.68 66.0971C299.723 66.0751 299.771 66.0637 299.82 66.0637C299.869 66.0637 299.917 66.0751 299.96 66.0971Z" fill="#3A2C6D"/>
<path d="M298.7 65.3871L299.57 65.8871C299.64 65.8871 299.63 65.9971 299.57 66.0471L298.74 66.5271C298.698 66.5468 298.652 66.5569 298.605 66.5569C298.558 66.5569 298.512 66.5468 298.47 66.5271L297.6 66.0271C297.53 66.0271 297.54 65.9171 297.6 65.8671L298.43 65.3871C298.472 65.3674 298.518 65.3572 298.565 65.3572C298.612 65.3572 298.658 65.3674 298.7 65.3871Z" fill="#3A2C6D"/>
<path d="M297.48 64.6871L298.34 65.1871C298.42 65.1871 298.41 65.2971 298.34 65.3371L297.51 65.8171C297.467 65.839 297.419 65.8505 297.37 65.8505C297.321 65.8505 297.273 65.839 297.23 65.8171L296.37 65.3171C296.3 65.3171 296.31 65.2071 296.37 65.1571L297.19 64.6871C297.235 64.6634 297.284 64.6511 297.335 64.6511C297.386 64.6511 297.435 64.6634 297.48 64.6871Z" fill="#3A2C6D"/>
<path d="M296.26 63.9971L297.12 64.4971C297.19 64.4971 297.18 64.6071 297.12 64.6571L296.3 65.1371C296.256 65.157 296.208 65.1672 296.16 65.1672C296.112 65.1672 296.064 65.157 296.02 65.1371L295.16 64.6371C295.09 64.6371 295.1 64.5271 295.16 64.4771L295.96 63.9971C296.006 63.9717 296.058 63.9584 296.11 63.9584C296.162 63.9584 296.214 63.9717 296.26 63.9971Z" fill="#3A2C6D"/>
<path d="M295.03 63.2671L295.9 63.7671C295.97 63.7671 295.96 63.8871 295.9 63.9271L295.07 64.4071C295.028 64.429 294.982 64.4404 294.935 64.4404C294.888 64.4404 294.842 64.429 294.8 64.4071L293.93 63.9071C293.86 63.9071 293.87 63.7971 293.93 63.7471L294.76 63.2771C294.801 63.2536 294.847 63.2405 294.894 63.2387C294.941 63.237 294.988 63.2467 295.03 63.2671Z" fill="#3A2C6D"/>
<path d="M309.71 71.7471L311.5 72.7471C311.57 72.7471 311.56 72.8571 311.5 72.9071L310.67 73.3871C310.628 73.4068 310.582 73.4169 310.535 73.4169C310.488 73.4169 310.442 73.4068 310.4 73.3871L308.61 72.3871C308.54 72.3871 308.55 72.2771 308.61 72.2271L309.43 71.7571C309.473 71.7335 309.52 71.7204 309.569 71.7186C309.617 71.7169 309.666 71.7266 309.71 71.7471Z" fill="#3A2C6D"/>
<path d="M310.28 70.7071L311.14 71.2071C311.22 71.2071 311.21 71.3171 311.14 71.3571L310.32 71.8371C310.277 71.859 310.229 71.8705 310.18 71.8705C310.131 71.8705 310.083 71.859 310.04 71.8371L309.18 71.3371C309.11 71.3371 309.12 71.2271 309.18 71.1771L310 70.7071C310.043 70.6851 310.091 70.6737 310.14 70.6737C310.189 70.6737 310.237 70.6851 310.28 70.7071Z" fill="#3A2C6D"/>
<path d="M309.06 69.9971L309.92 70.4971C309.99 70.4971 309.98 70.6071 309.92 70.6571L309.1 71.1371C309.056 71.157 309.008 71.1672 308.96 71.1672C308.912 71.1672 308.864 71.157 308.82 71.1371L307.96 70.6371C307.89 70.6371 307.9 70.5271 307.96 70.4771L308.78 69.9971C308.823 69.9751 308.871 69.9637 308.92 69.9637C308.969 69.9637 309.017 69.9751 309.06 69.9971Z" fill="#3A2C6D"/>
<path d="M307.83 69.2871L308.7 69.7871C308.77 69.7871 308.76 69.9071 308.7 69.9471L307.87 70.4271C307.828 70.449 307.782 70.4604 307.735 70.4604C307.688 70.4604 307.642 70.449 307.6 70.4271L306.73 69.9271C306.66 69.9271 306.67 69.8171 306.73 69.7671L307.56 69.2971C307.601 69.2736 307.647 69.2605 307.694 69.2587C307.741 69.257 307.788 69.2667 307.83 69.2871Z" fill="#3A2C6D"/>
<path d="M306.61 68.5871L307.48 69.0871C307.55 69.0871 307.54 69.1971 307.48 69.2471L306.65 69.7171C306.609 69.7418 306.563 69.7549 306.515 69.7549C306.467 69.7549 306.421 69.7418 306.38 69.7171L305.51 69.2271C305.44 69.1771 305.45 69.1071 305.51 69.0671L306.34 68.5871C306.382 68.5652 306.428 68.5537 306.475 68.5537C306.522 68.5537 306.568 68.5652 306.61 68.5871Z" fill="#3A2C6D"/>
<path d="M305.39 67.8771L306.25 68.3771C306.32 68.3771 306.32 68.4871 306.25 68.5371L305.43 69.0171C305.386 69.037 305.338 69.0472 305.29 69.0472C305.242 69.0472 305.194 69.037 305.15 69.0171L304.29 68.5171C304.22 68.5171 304.23 68.4071 304.29 68.3571L305.11 67.8771C305.154 67.8572 305.202 67.8469 305.25 67.8469C305.298 67.8469 305.346 67.8572 305.39 67.8771Z" fill="#3A2C6D"/>
<path d="M304.17 67.1771L305.03 67.6771C305.1 67.6771 305.09 67.7871 305.03 67.8271L304.21 68.3071C304.167 68.329 304.119 68.3405 304.07 68.3405C304.021 68.3405 303.973 68.329 303.93 68.3071L303.07 67.8071C303 67.8071 303 67.6971 303.07 67.6471L303.89 67.1771C303.933 67.1551 303.981 67.1437 304.03 67.1437C304.079 67.1437 304.127 67.1551 304.17 67.1771Z" fill="#3A2C6D"/>
<path d="M302.96 66.4671L303.83 66.9671C303.9 66.9671 303.89 67.0771 303.83 67.1271L303 67.6071C302.958 67.6268 302.912 67.637 302.865 67.637C302.818 67.637 302.772 67.6268 302.73 67.6071L301.86 67.1071C301.79 67.1071 301.8 66.9971 301.86 66.9471L302.69 66.4671C302.732 66.4474 302.778 66.4372 302.825 66.4372C302.872 66.4372 302.918 66.4474 302.96 66.4671Z" fill="#3A2C6D"/>
<path d="M301.72 65.7571L302.59 66.2571C302.66 66.2571 302.65 66.3771 302.59 66.4171L301.76 66.8971C301.718 66.919 301.672 66.9304 301.625 66.9304C301.578 66.9304 301.532 66.919 301.49 66.8971L300.62 66.3971C300.55 66.3971 300.56 66.2871 300.62 66.2371L301.45 65.7671C301.491 65.7436 301.537 65.7305 301.584 65.7287C301.631 65.727 301.678 65.7367 301.72 65.7571Z" fill="#3A2C6D"/>
<path d="M300.5 65.0571L301.36 65.5571C301.43 65.5571 301.42 65.6671 301.36 65.7171L300.54 66.1871C300.497 66.209 300.449 66.2205 300.4 66.2205C300.351 66.2205 300.303 66.209 300.26 66.1871L299.4 65.6871C299.33 65.6871 299.34 65.5671 299.4 65.5271L300.22 65.0471C300.264 65.0266 300.313 65.0169 300.361 65.0186C300.41 65.0204 300.457 65.0335 300.5 65.0571Z" fill="#3A2C6D"/>
<path d="M299.28 64.3471L300.14 64.8471C300.21 64.8471 300.2 64.9571 300.14 65.0071L299.32 65.4871C299.276 65.507 299.228 65.5172 299.18 65.5172C299.132 65.5172 299.084 65.507 299.04 65.4871L298.18 64.9871C298.1 64.9871 298.11 64.8771 298.18 64.8271L299 64.3471C299.044 64.3272 299.092 64.3169 299.14 64.3169C299.188 64.3169 299.236 64.3272 299.28 64.3471Z" fill="#3A2C6D"/>
<path d="M298.05 63.6471L298.92 64.1471C298.99 64.1471 298.98 64.2571 298.92 64.3071L298.09 64.7771C298.048 64.799 298.002 64.8104 297.955 64.8104C297.908 64.8104 297.862 64.799 297.82 64.7771L296.95 64.2771C296.88 64.2771 296.89 64.1671 296.95 64.1271L297.78 63.6471C297.822 63.6252 297.868 63.6137 297.915 63.6137C297.962 63.6137 298.008 63.6252 298.05 63.6471Z" fill="#3A2C6D"/>
<path d="M295.32 62.0671L297.7 63.4371C297.77 63.4371 297.76 63.5471 297.7 63.5971L296.87 64.0771C296.826 64.097 296.778 64.1072 296.73 64.1072C296.682 64.1072 296.634 64.097 296.59 64.0771L294.22 62.6971C294.15 62.6971 294.15 62.5871 294.22 62.5471L295.04 62.0671C295.083 62.0451 295.131 62.0337 295.18 62.0337C295.229 62.0337 295.277 62.0451 295.32 62.0671Z" fill="#3A2C6D"/>
<path d="M311.5 71.4071L312.68 72.0871C312.75 72.0871 312.74 72.2071 312.68 72.2471L311.86 72.7271C311.817 72.7491 311.769 72.7605 311.72 72.7605C311.671 72.7605 311.623 72.7491 311.58 72.7271L310.4 72.0471C310.33 72.0471 310.34 71.9371 310.4 71.8871L311.23 71.4071C311.272 71.3874 311.318 71.3772 311.365 71.3772C311.412 71.3772 311.458 71.3874 311.5 71.4071Z" fill="#3A2C6D"/>
<path d="M290.53 64.8271L307.89 74.8271C307.96 74.8271 307.96 74.9371 307.89 74.9871L307.48 75.2171C307.438 75.239 307.392 75.2504 307.345 75.2504C307.298 75.2504 307.252 75.239 307.21 75.2171L289.84 65.2171C289.77 65.2171 289.78 65.1071 289.84 65.0571L290.25 64.8171C290.295 64.7988 290.343 64.7902 290.391 64.7919C290.439 64.7936 290.487 64.8056 290.53 64.8271Z" fill="#3A2C6D"/>
<path d="M310.85 65.2771L310.73 65.3371L307.73 67.0771L302.4 63.9971L302.29 63.9271L305.4 62.1371L310.85 65.2771Z" fill="#BFBFBF"/>
<path d="M310.73 65.3371L307.73 67.0771L302.4 63.9971L305.4 62.2671L310.73 65.3371Z" fill="#E5E5E5"/>
<path d="M319.4 69.3171V69.5871C319.402 69.7789 319.352 69.9678 319.258 70.1346C319.163 70.3014 319.026 70.4403 318.86 70.5371L308.28 76.6371C308.115 76.7347 307.927 76.7863 307.735 76.7863C307.543 76.7863 307.355 76.7347 307.19 76.6371L288.05 65.6371C287.876 65.5366 287.732 65.3903 287.635 65.214C287.538 65.0377 287.491 64.8381 287.5 64.6371V64.3671L307.73 76.0471L319.4 69.3171Z" fill="#E5E5E5"/>
<path d="M307.43 76.2171C307.249 76.2883 307.055 76.3181 306.861 76.3042C306.667 76.2904 306.479 76.2333 306.31 76.1371L287.31 65.1371C287.144 65.0416 287.001 64.9105 286.892 64.7531C286.783 64.5957 286.711 64.416 286.68 64.2271L284.59 51.7871C284.585 51.7172 284.585 51.647 284.59 51.5771C284.589 51.4053 284.624 51.2352 284.691 51.0771C284.758 50.919 284.856 50.7761 284.98 50.6571L304.78 62.0871C304.899 62.1603 305.002 62.2578 305.081 62.3732C305.16 62.4887 305.214 62.6194 305.24 62.7571L307.43 76.2171Z" fill="#F4F4F4"/>
<path d="M307.73 76.0571L307.6 76.1371L307.43 76.2171L305.17 62.7571C305.145 62.6194 305.09 62.4887 305.011 62.3732C304.932 62.2578 304.829 62.1603 304.71 62.0871L284.96 50.6571C285.033 50.5743 285.121 50.5064 285.22 50.4571L305.06 61.9071C305.181 61.9793 305.286 62.0763 305.367 62.1918C305.448 62.3073 305.503 62.4386 305.53 62.5771L307.73 76.0571Z" fill="#E5E5E5"/>
<path d="M322.12 22.8271C322.12 22.8271 321.87 27.5571 321.98 27.9771C322.09 28.3971 324.15 29.7871 324.75 30.2871C325.35 30.7871 321.48 34.6071 319.6 35.4671C317.72 36.3271 311.74 34.0571 311.6 31.1171C311.46 28.1771 312.6 25.7271 313.54 25.5971C314.48 25.4671 322.12 22.8271 322.12 22.8271Z" fill="#FFCEA9"/>
<path d="M322.64 28.7971C322.64 28.7971 319.21 33.9171 314.42 34.3971C312.91 32.9071 312.77 27.6071 314.86 25.9171C314.86 25.9171 312.94 24.3571 311.62 24.6671C310.19 25.5119 309.122 26.8542 308.62 28.4371C307.393 31.9707 306.821 35.6982 306.93 39.4371C307.01 44.4371 306.93 57.1471 306.93 57.1471C307.211 58.6466 307.806 60.0697 308.677 61.3227C309.547 62.5757 310.673 63.6303 311.98 64.4171C315.442 66.381 319.524 66.9463 323.39 65.9971C325.82 65.4271 326.72 64.0771 327.56 62.3071C327.34 58.7971 325.95 51.5471 326.56 47.1171C327.17 42.6871 328.08 39.3871 328.32 35.8171C328.56 32.2471 327.85 32.3071 326.05 31.0271C324.969 30.2022 323.829 29.4569 322.64 28.7971Z" fill="#F4F4F4"/>
<path d="M317.14 69.5871C318.001 69.0138 318.9 68.4993 319.83 68.0471C320.697 67.7704 321.486 67.2904 322.13 66.6471C322.97 65.8271 324.35 62.7071 325.34 59.6471C326.325 56.2155 326.714 52.6403 326.49 49.0771C326.08 44.8071 324.54 38.8371 324.15 36.3871C323.76 33.9371 324.55 32.9471 325.7 32.0471C327.04 30.9871 328.89 31.4571 329.88 34.8971C331.155 39.6564 331.893 44.5435 332.08 49.4671C332.121 53.1246 331.557 56.7637 330.41 60.2371C329.391 63.2125 328.014 66.0533 326.31 68.6971C325.84 69.4871 325.68 70.1971 324.96 71.8171C324.269 73.4449 323.191 74.8797 321.82 75.9971C320.62 76.8571 320.05 76.9971 319.76 76.8171C319.47 76.6371 319.48 76.2271 319.99 75.8171C320.841 75.1478 321.566 74.3316 322.13 73.4071C322.13 73.4071 321.08 74.4671 320.39 75.0471C319.783 75.5602 319.11 75.9906 318.39 76.3271C317.69 76.6371 316.71 76.0371 317.21 75.5671C317.71 75.0971 318.21 74.8571 319.21 73.9871C319.748 73.5307 320.228 73.0101 320.64 72.4371C319.936 72.9789 319.191 73.4638 318.41 73.8871C317.807 74.2518 317.115 74.4422 316.41 74.4371C316.04 74.4371 315.59 73.8971 316.29 73.4371C317.252 72.9159 318.149 72.2814 318.96 71.5471C319.73 70.7871 320.16 70.1371 319.96 70.1271C319.76 70.1171 319.32 70.5871 318.42 70.8771C317.52 71.1671 316.55 70.8771 316.42 70.4071C316.29 69.9371 316.3 69.9971 317.14 69.5871Z" fill="#FFCEA9"/>
<path d="M311.4 15.7671C311.97 12.0971 314.62 9.31707 318.4 9.52707C319.925 9.60462 321.386 10.1595 322.578 11.1132C323.77 12.0669 324.632 13.3712 325.043 14.8416C325.453 16.3121 325.39 17.8742 324.864 19.3072C324.338 20.7402 323.374 21.9716 322.11 22.8271C321.976 23.3847 321.778 23.9249 321.52 24.4371C320.19 25.9971 316.14 26.9971 314.96 26.7971C314.27 26.7344 313.614 26.4652 313.079 26.0246C312.544 25.5841 312.154 24.9925 311.96 24.3271C310.7 21.4471 311.09 17.5871 311.4 15.7671Z" fill="#FFCEA9"/>
<path d="M322.12 22.8271L321.77 19.6171C321.77 19.6171 324.39 12.8371 318.2 14.1371C314.12 14.9971 313.09 15.3771 311.85 12.6371C310.61 9.89707 314.96 7.42707 320.19 8.11707C321.982 8.30241 323.64 9.15492 324.833 10.5054C326.026 11.8558 326.667 13.6055 326.63 15.4071C326.5 17.4271 325.96 21.5071 322.12 22.8271Z" fill="#3A2C6D"/>
<path d="M332.71 41.2271C332.71 41.2271 329.33 44.5871 325.34 43.6171C324.77 43.2271 323.39 35.3771 323.39 35.3771C323.39 35.3771 323.39 31.0271 326.73 31.1371C330.07 31.2471 332.71 41.2271 332.71 41.2271Z" fill="#EDEDED"/>
<path d="M307.21 34.7071C306.265 34.673 305.369 34.2754 304.71 33.5971C304.85 31.8371 307.1 25.1571 311.62 24.6671C310.39 25.5295 309.416 26.7075 308.8 28.0771C308.097 30.2419 307.565 32.4587 307.21 34.7071Z" fill="#EDEDED"/>
<path d="M510.36 319.147L426.84 270.927C421.59 267.927 417.34 259.777 417.34 252.787V121.377C417.34 114.377 421.59 111.177 426.84 114.197L510.36 162.427C515.6 165.427 519.85 173.577 519.85 180.567V311.997C519.85 318.997 515.6 322.177 510.36 319.147Z" fill="#211B49"/>
<path d="M513.7 321.067L516.56 319.657L514.63 315.867L513.7 321.067Z" fill="#211B49"/>
<path d="M418.9 114.567C419.741 114.067 420.625 113.642 421.54 113.297L423.66 117.487L418.9 114.567Z" fill="#211B49"/>
<path d="M508.17 320.247L424.64 271.997C419.4 268.997 415.15 260.847 415.15 253.857V122.477C415.15 115.477 419.4 112.267 424.64 115.297L508.17 163.527C513.41 166.527 517.66 174.667 517.66 181.657V313.067C517.66 320.057 513.41 323.277 508.17 320.247Z" fill="#2E245B"/>
<path d="M439.83 142.697L424.64 133.927V128.447L439.83 137.217V142.697Z" fill="#A298E2"/>
<path d="M507.22 181.607L442.68 144.337V138.867L507.22 176.127V181.607Z" fill="#C33AFC"/>
<path d="M439.83 160.237L424.64 151.467V145.987L439.83 154.757V160.237Z" fill="#A298E2"/>
<path d="M485.39 186.537L442.68 161.877V156.397L485.39 181.057V186.537Z" fill="#F4CE2C"/>
<path d="M439.83 168.997L424.64 160.237V154.757L439.83 163.517V168.997Z" fill="#A298E2"/>
<path d="M495.83 201.337L442.68 170.647V165.167L495.83 195.857V201.337Z" fill="#FF8657"/>
<path d="M439.83 177.767L424.64 168.997V163.517L439.83 172.287V177.767Z" fill="#A298E2"/>
<path d="M479.7 200.787L442.68 179.417V173.937L479.7 195.307V200.787Z" fill="#A298E2"/>
<path d="M439.83 151.467L424.64 142.697V137.217L439.83 145.987V151.467Z" fill="#A298E2"/>
<path d="M474.95 171.747L442.68 153.107V147.627L474.95 166.257V171.747Z" fill="#4D3BFF"/>
<path d="M439.83 186.537L424.64 177.767V172.287L439.83 181.057V186.537Z" fill="#A298E2"/>
<path d="M461.66 199.137L442.68 188.177V182.697L461.66 193.657V199.137Z" fill="#C33AFC"/>
<path d="M439.83 204.067L424.64 195.307V189.827L439.83 198.597V204.067Z" fill="#A298E2"/>
<path d="M502.48 240.237L442.68 205.717V200.237L502.48 234.757V240.237Z" fill="#F4CE2C"/>
<path d="M439.83 212.837L424.64 204.067V198.587L439.83 207.357V212.837Z" fill="#A298E2"/>
<path d="M460.71 224.897L442.68 214.487V209.007L460.71 219.417V224.897Z" fill="#FF8657"/>
<path d="M439.83 221.607L424.64 212.837V207.357L439.83 216.127V221.607Z" fill="#A298E2"/>
<path d="M495.83 253.937L442.68 223.247V217.777L495.83 248.457V253.937Z" fill="#A298E2"/>
<path d="M439.83 195.307L424.64 186.537V181.057L439.83 189.827V195.307Z" fill="#A298E2"/>
<path d="M492.98 225.997L442.68 196.947V191.467L492.98 220.517V225.997Z" fill="#4D3BFF"/>
<path d="M439.83 230.377L424.64 221.607V216.127L439.83 224.897V230.377Z" fill="#A298E2"/>
<path d="M449.32 235.857L442.68 232.017V226.537L449.32 230.377V235.857Z" fill="#C33AFC"/>
<path d="M439.83 247.907L424.64 239.147V233.667L439.83 242.437V247.907Z" fill="#A298E2"/>
<path d="M455.02 256.677L442.68 249.557V244.077L455.02 251.197V256.677Z" fill="#F4CE2C"/>
<path d="M439.83 256.677L424.64 247.907V242.427L439.83 251.197V256.677Z" fill="#A298E2"/>
<path d="M474.95 276.957L442.68 258.327V252.847L474.95 271.477V276.957Z" fill="#FF8657"/>
<path d="M439.83 265.447L424.64 256.677V251.197L439.83 259.967V265.447Z" fill="#A298E2"/>
<path d="M493.93 296.687L442.68 267.087V261.607L493.93 291.207V296.687Z" fill="#A298E2"/>
<path d="M439.83 239.147L424.64 230.377V224.897L439.83 233.667V239.147Z" fill="#A298E2"/>
<path d="M507.22 278.057L442.68 240.787V235.307L507.22 272.567V278.057Z" fill="#4D3BFF"/>
<path d="M87.08 219.937L77.96 215.257L58.85 226.257C54.52 228.757 51 226.737 51 221.727V200.907C51.1477 198.183 51.9355 195.532 53.2994 193.169C54.6633 190.806 56.5649 188.798 58.85 187.307L172.66 121.577C176.99 119.077 180.51 121.107 180.51 126.107V146.997C180.362 149.721 179.574 152.372 178.211 154.735C176.847 157.098 174.945 159.106 172.66 160.597L96.14 204.737" fill="#B1B4C4"/>
<path d="M177.66 120.767L181.96 122.507L178.32 126.247L175.74 122.117L177.66 120.767Z" fill="#B1B4C4"/>
<path d="M87.08 219.937L91.61 221.757L91.62 217.857L87.61 217.057L87.08 219.937Z" fill="#B1B4C4"/>
<path d="M58.57 228.997C58.74 229.357 53.66 227.277 53.48 226.997C53.3 226.717 59.64 222.997 59.64 222.997L58.57 228.997Z" fill="#B1B4C4"/>
<path d="M100.67 206.547L177.19 162.377C179.473 160.885 181.374 158.876 182.737 156.514C184.101 154.151 184.89 151.501 185.04 148.777V127.927C185.04 122.927 181.52 120.927 177.19 123.387L63.34 189.117C61.056 190.609 59.1552 192.617 57.7915 194.98C56.4277 197.343 55.6393 199.993 55.49 202.717V223.567C55.49 228.567 59.01 230.567 63.34 228.097L82.45 217.097L91.61 221.787L100.67 206.547Z" fill="#E9EAF2"/>
<path d="M174.83 141.527L65.7 204.527V197.277L174.83 134.267V141.527Z" fill="#8C50FF"/>
<path d="M137.15 175.977L65.7 217.227V209.967L137.15 168.717V175.977Z" fill="#8C50FF"/>
<ellipse cx="116.5" cy="571.5" rx="15.5" ry="17.5" fill="#8C50FF"/>
<ellipse cx="79" cy="278.5" rx="10" ry="11.5" fill="#8C50FF"/>
<circle cx="16.5" cy="423.5" r="16.5" fill="#8C50FF"/>
<ellipse cx="459.5" cy="571.5" rx="15.5" ry="17.5" fill="#8C50FF"/>
<ellipse cx="588.5" cy="242.5" rx="15.5" ry="17.5" fill="#8C50FF"/>
<defs>
<linearGradient id="paint0_linear" x1="360.078" y1="0" x2="360.078" y2="585.717" gradientUnits="userSpaceOnUse">
<stop stop-color="#8C50FF"/>
<stop offset="0.458333" stop-color="#5A38A7"/>
<stop offset="1" stop-color="#2E245B"/>
</linearGradient>
<linearGradient id="paint1_linear" x1="372.207" y1="297.529" x2="455.31" y2="152.929" gradientUnits="userSpaceOnUse">
<stop offset="0.21" stop-color="white" stop-opacity="0"/>
<stop offset="1" stop-color="white" stop-opacity="0.2"/>
</linearGradient>
<linearGradient id="paint2_linear" x1="393.733" y1="247.825" x2="371.277" y2="286.899" gradientUnits="userSpaceOnUse">
<stop stop-color="#E9EAF2" stop-opacity="0.8"/>
<stop offset="1" stop-color="#E9EAF2" stop-opacity="0"/>
</linearGradient>
</defs>
</svg>
